<mxfile host="www.draw.io" modified="2019-12-14T15:41:52.835Z" agent="Mozilla/5.0 (Macintosh; Intel Mac OS X 10_13_6) AppleWebKit/537.36 (KHTML, like Gecko) Chrome/75.0.3770.142 Safari/537.36" etag="yGDEGmxt-IscaqqFhMOj" version="12.4.2" type="github" pages="1">
  <diagram id="ZdQSpx0zcxCLBhtlE4EH" name="Page-1">
    <mxGraphModel dx="3679" dy="1588" grid="1" gridSize="10" guides="1" tooltips="1" connect="1" arrows="1" fold="1" page="1" pageScale="1" pageWidth="827" pageHeight="1169" math="0" shadow="0">
      <root>
        <mxCell id="0"/>
        <mxCell id="1" parent="0"/>
        <mxCell id="H8nbsM9TTF3VbTafch5q-39" value="" style="rounded=0;whiteSpace=wrap;html=1;dashed=1;fillColor=#ffe6cc;strokeColor=#d79b00;" vertex="1" parent="1">
          <mxGeometry x="40" y="3.4299999999999997" width="780" height="111.14" as="geometry"/>
        </mxCell>
        <mxCell id="H8nbsM9TTF3VbTafch5q-18" value="" style="rounded=0;whiteSpace=wrap;html=1;dashed=1;fillColor=#d5e8d4;strokeColor=#82b366;" vertex="1" parent="1">
          <mxGeometry x="-524" y="160" width="1350" height="1065.5" as="geometry"/>
        </mxCell>
        <mxCell id="H8nbsM9TTF3VbTafch5q-33" style="edgeStyle=orthogonalEdgeStyle;rounded=0;orthogonalLoop=1;jettySize=auto;html=1;verticalAlign=bottom;" edge="1" parent="1" source="H8nbsM9TTF3VbTafch5q-16" target="H8nbsM9TTF3VbTafch5q-2">
          <mxGeometry relative="1" as="geometry"/>
        </mxCell>
        <mxCell id="H8nbsM9TTF3VbTafch5q-16" value="" style="rounded=1;whiteSpace=wrap;html=1;dashed=1;fillColor=#f5f5f5;strokeColor=#666666;fontColor=#333333;" vertex="1" parent="1">
          <mxGeometry x="-800" y="760.89" width="240" height="479.11" as="geometry"/>
        </mxCell>
        <mxCell id="i4YYHDQzhJ1eBen9HSnk-7" value="" style="rounded=1;whiteSpace=wrap;html=1;dashed=1;fillColor=#dae8fc;strokeColor=#6c8ebf;" parent="1" vertex="1">
          <mxGeometry x="-314" y="194" width="1134" height="496" as="geometry"/>
        </mxCell>
        <mxCell id="i4YYHDQzhJ1eBen9HSnk-19" value="" style="endArrow=classic;startArrow=classic;html=1;entryX=0.5;entryY=1;entryDx=0;entryDy=0;exitX=0.5;exitY=0;exitDx=0;exitDy=0;" parent="1" target="i4YYHDQzhJ1eBen9HSnk-26" edge="1" source="i4YYHDQzhJ1eBen9HSnk-23">
          <mxGeometry width="50" height="50" relative="1" as="geometry">
            <mxPoint x="106" y="270" as="sourcePoint"/>
            <mxPoint x="346" y="230" as="targetPoint"/>
            <Array as="points"/>
          </mxGeometry>
        </mxCell>
        <mxCell id="i4YYHDQzhJ1eBen9HSnk-20" value="&lt;font style=&quot;font-size: 24px&quot;&gt;&lt;b&gt;API通信&lt;/b&gt;&lt;/font&gt;" style="text;html=1;resizable=0;points=[];autosize=1;align=left;verticalAlign=top;spacingTop=-4;" parent="1" vertex="1">
          <mxGeometry x="180" y="210" width="100" height="20" as="geometry"/>
        </mxCell>
        <mxCell id="i4YYHDQzhJ1eBen9HSnk-26" value="" style="shape=image;verticalLabelPosition=bottom;labelBackgroundColor=#ffffff;verticalAlign=top;aspect=fixed;imageAspect=0;image=data:image/png,iVBORw0KGgoAAAANSUhEUgAAAVMAAACVCAMAAADSU+lbAAAAz1BMVEX////wVCNFNjU2IyExHBvvQwA+LSzvRwA7KSjvQQDwUh8vGhhDMzLvSAAuFxU0IB7T0NCJgoHm5OSblZWjnp3wTBHx8O/wUBrh39+uqanvSgt0a2tYS0uPiIjY1tZdUVF9dHRsYmL+8u/5xLnLyMj71s71mIP85eArEhD6zsX+9/XydFP3q5vzfmH95+K7t7f4t6nxYzr5wLTxXDD2pJLydFS2srL73NX1kXr0h232p5ZMPj3zgGTybUn0jHTuKwAiAADyaEMbAADxYTUHAAC8drF3AAAS00lEQVR4nO1dB3eiTBdW6UWwAZHYC6Kxl6gxMcmb7///pm8KZVCMkDVrWZ9z9kQHBuHhzm1zZzaRuOOOO+64YDQ67W4Totse9s59M9eO3nJsLZKCwHBcGoFjBGMx796J/Rl6XWvCMKZmiMkAREPjmKdx49z3d3VojBcCp+2wScAwhdf2uW/yqtAcCKYRFM4QWplJ99w3ei3o9Q3OJ9TQTKBDhV0FgIlm3jrnvttrQG/OmD5/ovlkjbsdoDvNcBUgWOe+4ctHn9FIQfxy28fhnCaTmrg85/1ePpaz9I4cLrDXtOQOUAp4F/pnvuuLxuodOKJB42RwVrfdtZjDHkAyyQ3OfeOXi2G70Ri2x6+cSTKopTlOO8gnPmV2d1aPoDcWD2nPAzCM4blv+vIxF74b7PsQmbtTdRTtbzVoGKl3838UnfRdUk+OpRCLU0Aq0qmd1XzeB2HCuW//MjE+7JOGk2oi628JGgpnJ9Y9G7CPJ+M4kSSMJAoQ5gymWOOY9T11tYNhzNGfND5Rv77Xz2A+78IaxOqIr78HDUdUTd8Tu6eudhBbUJNpnKZaakSyUJif+TEuC4OYGjWZZMaoY++JMHDpz3vo6qMZ0/QDCI5Z6hORmMHdtaoPJjanjpsKHNWJ/0LE+/j38Rp78CfFpDtRPSby29ziPn3t4GB6/xsYb27vHvD/vVbtPv4xOvEHfzJprmFXZJcalje7JQqDe0IQIb6RAmBeQM/lCl2gN54xTp2AIQyargbo/MOuQNz4FEOYgq5TN/u/nM+ENCpnMdJMcvE6eOPemmd9qvPCihtKOaRCj+rl3Zv9azTng1laYBhBSE9W039YSBM/M1JJN5tqCbOAYeo1Go27+U90f6RQAalpKIuWECWJMpxag5mhGbPB/J/wDX5k+BGpBiT1RTA4sf/dUG9bIlK2EIbGCevbT7k0YqdRXBgipLIpiKImPI1DmWo01+nd4kFD2P7lR/z7+KmcuqR2khqsrGSM9bhL+Ke9TtOaMOkwr0K7+Yntb2pQj0HUEDlblE0RDTihYk4Wg8FgMQEuQPrglUXhxsd/WOVpZFI5lKRqJ33nQTQgjlwTG7jbxewPOAUSh9OpwWrB4/BTBjeJSUxODU0jVwAw2OL05sEirNAXYGimaWKNwEzP/Ni/is9YnJrcwOrP18CBclu0maMcx1/MN7pZ1BjjdT4ej62JYMCE4Xmf+ncRi1OvFLX76cUKfj56aSUFM0yXGqYw6Xt2abgCRo275YRAHE4ZgoixP3diJr32znhtMJypGdjJBxZLMxnmaRz0njozw1j8tSf8+4iRmDLWZMeOP3cqBlaoNNrTl9XgbTKbfX0utvNpWPHakybccGIgxtQpF6w6acz8riIzi7dI7ZO54dB/G51TZle03oiklmgeilBD0bvlWcEYCVRur/M2ENmCCDW9mI+7y06E4HN6wwo1RgKV2e89FXbEHNgk4X0WxajPTv4oF4NmOpzAME5DxK8xCLIqasIgWrHfDY/9ZfTElDkOvcCW42B+FKVRhNm3yVQSN5xH6UXn9GCU3n55/Uya5td6fOtZvIiIkUQR7pRFwyq6M6Wtzn2zV4LpAcMPa8vhph4k5cLP8p6NZbc5nXaXt501JXCgsFczrTYY6o3uyq+JShqvca/eaFqTNNxtxUynGUHcNm84JCUQqlAZf91+b+WnS4RYiyJ64zchMIUiGmlhe8MG38M8JJJKB7zHtpcuiZP3HFoMsQZb1Ey4L5Bpcv9CrVpnf/CLn8FTehOXd20dfpE9NLaEzkhqwsQaww2spuP59vP9hv19B/sp1PRecPnmEsRE2yFhHmA0PQ+ap+XNj//pXni6l4EiSBUiBPNdcjG7IVj/hmEKYHceSTRCTpq4ulE4lvlsDIhF1yLzdPvqMwT9HRdVFENO6nkzTUckdU5kVcR0cvfkRme5XP4DNO8KqhZ20tDLDAgvhy811ogCirQWTLu052+MwEAIyfWN717X3EmkMKGP2/UchOCuM+2+sxtlr22lvWl+Edj6wCx+r5/0Z6tFDQRpi5veZ2Fnps8ML2noe9RrgVUmQ0t4FxjDZHARHyyO4ITPl6Bx7xNVFQYzmY/H/dUsdlx2RWgEBdU4sPvR2nOQROE1IMvL/kBEo1pgzNnTatzeMfWdL8K5MN9cAe3dsqROg47/oWTJhFy7a+2c1BsChBefj8k9bZh/Zb+6VcD2awceu0HuoqIJ24hitiKHQcSo4RbwFAj7DwlqcBcVg5n1I7hFAzKo4IjAdNi58a2WP0k7dUijglEcUBLAus+sZhivjebAcaTeyLdlugmDYf8N6V9xe8PVE4kJ+ezMIcfe2l2pImppxnxb9afd5bABMFy2py/rGfMeRqn2hBuHA8Hxq0SD+bphS/VE1pVwh1zyddjEAPKfGAccXGgiOP7YgqTUmODGxutC9Pdhveml6ith//H3sYhQumIwTvb6lXwDxoxQn8O+n2lhbngxCllXoh2svnk7SqrprkXdkuYpQCnEi+dipaPmZa8QjTc/p3SY1MX3BUGit2NyQPma+/UBS2/8p29YUhNT05NCbXJQp35TaSGmZ67NISkVhbCZ7IaX7eJueqJ77qU6jPQhP+fl0Gafopn2clEWwbxmhl+qIbraxrzN7YD7WN/1XjRnWl9kXg+IatsIG/8Gp/lR0taXUs3fP703bU67PeAUOPsoNmbuuDC0W1yN0vDSzc2F878iGAcDUEvYXUpqCgvfq+15nploMis/Kuitkotx532Z8Fb/D1yZByc+3V4uoP0+cOWyMX3l0P+GAiKleTdMWhuWyeAVz4YB/H7ulcwytw3DJfqrHzT3g2aiLVhdfz/17qeQ1jSUIBzfYKzaF4S5/1jLqTX4mk2eBlsrPPGBKvpmk8X2pRnIljbWAlxaDoge7Nf6AU67g+RiTQb+zf583g99czeAtamlX/5MWECk/y6kk5/rHaJdAAXRXFmz6e0N80MADr3GWYeyTZ3+9ulp2/+2xGe47Hy7hQfo3Qa+QTu0RPjXoFdG+gkvl4HIRT0bLtHRhLeQKbhGf8aYcN0zJ3DXlQQdVVVF/S8yBceR+09VVTsf9fRe0kA2WPh8IRRcb9n/dAy9xiz67QutJKmkSj7q2WdHNAtUKpWiT8kpDS7IR+Y00XMWk4kaJxhv69XK2i5mjBcIcLtzJpeECi0TYCk7i5oL/Jk5TfS+/Lk8ES0uJ1bmahedl6uoqSD4Kmw+P6fBTOoOwuf+LwV7nKaoQuI3OFXAMIjHaXBWLgDuovc6x5zKPIKMPyd+g9NNtVotFeJ1Gh9MkiQvWVARp3J99AxQ2CBSpYdf4PRnQJschZLKvFwuq4hTNut8S0FSqVaQU33HTdVz+35rWBtu/8P7Wx0SVeC9zrudi4zMg5yWWcjpyOVUT2TKG1VS+KJ7ul4oUYokqZvyg3cJPV9SJUmhqs/4e65ar1cBxa1yiZIkqeY11uvgOi34oVpBjRn0OfPtDZKbHO3IKgjlGS05w6H+BVU+BjnN8ySnbFlWWaQOFEcRFm2sc1Mya9ecPs9eG7VBwvoAzBFfztoU7osdiZwNbBQFbVSVBz7bBnWVWXBm/dgtfr/JkZeSSm8vZXuT7zhNYVIgVHS4oJBOFyZjZPtNcgq2PEC3iWW9VgkKou9L5WzXuSjDH5GOB8A9K9LWUQaXvoxIYIfTwNgnoCJebEdGMdUqGuuO30Dxnh+GOCXAIiZ9/xS9OCUH5Bn2KIbfVxDEltHfQdQuYpI+yGl2l1PZcbD4Z/doSq1mH1XZlcpnCn0qtoqs2+RyKrM86iA/JoI+P3Qv5GqiBP+Uot7oeLKb0veYBENfM028jZeZPH8SIMCpzrsy6Yx9ulQY1SF/PBRAfLQFT0QOggSMeo11PiRakF1FdzmVVbk8Qm9BhgqV5DQDBZStw2N2Jfqtdl4mgRV5Iq474WaL1bw/7s+t1wmcFIiyJuV3gf3TaiEPUMMyCXnBNuoRPvGD6rChS67QAWOFFC+gtwqFDVkcdFitOJzKVch9IpRT/CLQq8qG3tRBNJrWW9opxoeplfm0HdSgnek2/X5uUok4yjEriALEqYqcS48NRBqLaUFCCZUEHsCZVqs14h0ZR5w67pccyqmuutrhJ7fcG3Y6w2/qG9vnLtHfj/dtaI4wp8gHPc4p8KIAPL2BOcXeVziniWf8q3TrVI9xUb7/LqeyjQQsHqc+InKaQEra0SMnQK87/9Img9X4ImbonLHPQvA8pdSx0YjJqZeAjcopyixEN/pRsFwLcMHz1/kTAY6NypcB8sWW64D/Mqdl7KpRMfNURzB8YpCPuj4zq0H/1EMsTnfk7TinD248ppw48zVGBYGG8HdnQ3cRl1O5Thx3fKkUFeh7nFMk3J6bdUoM0dxgUjjrtH0MThMypAJFpBXelTIceTkZKb0F5e4op0Uo5HyWd692Unyi1ABzzhg1DqcoE5iiUvUSjpSgq99CNo4q1bK1+kb5gE7DMU6xDqklUCClnrKGAAEXUAtnLM+Lw6nu5FBk7D9JI3gYf4GOA/iELnSMU5dLl9tTA6/zO+PeXnE4TTzbhDeq1vAFyDZkrY5wOoKfaPg+kA5QTub3u+ihaj7j8/iZv4SKDSSM2ueUBs025hSeobrm3kk0y7xXU1JJOYlrmeXVD9DwgDpgTnno9pbIq+jwyk7utcRDp/jkz9T7hFMD3NmM/0MtC7CXxBzB1hrydHR0xsg58FxL2YrN1wuEHmzVNraiSKVaAU2D5IgO8FM2T17l2b9y4MyTwoJLV8K29bzj51g+CZpx0RPW14ilJQrnT6XeHIbNlxteRPpz6PnHk3uwv46HbJnEabMaf47ch319nGZslpY82KcOwP8UOTrCZPWlIaPyRQK/4Nj8Ea6UU+Xct/Ad7pyeHndOT487p6fHzXCaR/mR3CPMoVSK5Xppkyo9ehF+Kw/D+odirZQqOYUlhcdNquq7YTr8vnFzAg95/0i+kPcoGuWdlFSmXAU/UPPMYwYfGMHMDsHpQz5/8hzW7yCMU/sD8JJVPuAjPNrAxVIUiVZth5r8R0HPy5JK0zRFlRKZGvxE07zqTi0XbRX0UCQVz2vnPj7cC1c+KMXL15Q+EIt6FVwK/QDvUFb8AGy2NjTMefuc6qx60nnWX0QYp6qkP9O8VIXZo+fyc+shpz+06ryNJSnPbwALbPY5UynwMktT0qY8qlTKPM4NJp5t6rGl9/TMI4V7yLRbFVWg6qxXbyopiC2ZpfKZnF4pbvgPXN5bpLO9R4lXcT2gy2mVZa9FC4RyKlcparNbv1zjsZzkeVnKOgfrMqu6JdPutBTNl50eZR7N/tVoVzar0gNvO58rNIvPYd3J0zoro79FqsTydhkx6HGa5ZUY9WrnRSinKdbeD1IrKhasPF/1BKbG+7UkJVxLOlL9LLNKQ+6LzpRAQrf5RE1yRziNWmnK06O6got9irxMlZwX5XL6LEknnw78NWRUqkUAtalyPWSY6RJeNJGnfB5rlL/kyeGUPFyn8KSfw/JIyqJ/CI80moF1XpRzOrpakWe9N+pwWrGpcuJqkFFTKhHvozZVfQg5M5xT/1EdTsmmLJ5zoSQ8vB+BjOqKU8xHIS3boojigCyexClSftYBc6rz7KUlIr5DBgglAdSmqmGq6+ec1mk8vhUokyUFT3NJaI3AiOS0fIjTqqNprwSh+vTPOK3lHjByjmoo0OisjARfWV5CA3ukovcXiVNgn86+/C0OjnP6MCoWYMoqz0bjlGUVFyyew27RiKSyBE/ISPgLnlmNwmlRoq7E2XdwjFO9pDj5VTUVkdONvyPABhEHDDr8k8KjnkZWqYRtfBROCyr1/bq0S8MxTjes+pgvQESV0xALvYE+VU7BSrEGC1h0CftIkcZ+jT//0tc4OMJphlbdcfcDG+WiDL3+ItaqwJuqwevipXzRbFTJWfh3JTjCaZHynuYPOB3Rj9D647ej25RntoK+1EFOdZo9uoTygnCEU4LAiJxm9yuFgOPEg+5uVFqSKp57Ffh552r7nCYyV+bzn5hTEK3v/wqv6C3aFbUCnU/wThig24Tu5nGcGsIpiG+VS5sqO4wjnD5TKfdjRBv1YNP73u0j3cp6mZSKVNIld8jX/YXRRR7HqWGcAjt15TkUn9Oc7TBV4CP6UoAlNxGaa7nZgCKddzwpCJ73r1Gx+To6oOdp1a2jDuEU2Cn+anJ9tL3XRhOSllUpvlqlFNouyziayasEpyrBqYo51TeUqlbr9ZKkKP9zjlVoVk75vXjWXw89snmar9ZTCqU4irioEpwqbo5Fp9iryUnL+wWgskwMszwNuLE3+VyiyiNOC3LNO1iT/bxUVXazcYUU6AE71bz8nLzZ+GeOUhviF3JZCs4KKHXXaSvKvpHP+ZnojJyKuTz1ggHC97ijTofRfqxfuCqn/o477vgn8X+MYtI/aPoB2QAAAABJRU5ErkJggg==;" parent="1" vertex="1">
          <mxGeometry x="390" y="10" width="202" height="89" as="geometry"/>
        </mxCell>
        <mxCell id="i4YYHDQzhJ1eBen9HSnk-27" value="" style="shape=image;verticalLabelPosition=bottom;labelBackgroundColor=#ffffff;verticalAlign=top;aspect=fixed;imageAspect=0;image=https://developers.google.com/web/tools/images/puppeteer.png;imageBorder=#000000;dashed=1;imageBackground=none;" parent="1" vertex="1">
          <mxGeometry x="-284" y="230" width="180" height="262" as="geometry"/>
        </mxCell>
        <mxCell id="i4YYHDQzhJ1eBen9HSnk-37" value="&lt;font style=&quot;font-size: 24px&quot;&gt;&lt;b&gt;アセット提供&lt;/b&gt;&lt;/font&gt;" style="text;html=1;resizable=0;autosize=1;align=center;verticalAlign=middle;points=[];fillColor=none;strokeColor=none;rounded=0;" parent="1" vertex="1">
          <mxGeometry x="368" y="321.82" width="160" height="20" as="geometry"/>
        </mxCell>
        <mxCell id="i4YYHDQzhJ1eBen9HSnk-42" value="&lt;font style=&quot;font-size: 24px&quot; color=&quot;#cc0000&quot;&gt;&lt;b&gt;テスト実行&lt;/b&gt;&lt;/font&gt;" style="text;html=1;resizable=0;autosize=1;align=center;verticalAlign=middle;points=[];fillColor=none;strokeColor=none;rounded=0;" parent="1" vertex="1">
          <mxGeometry x="-100" y="321.82" width="140" height="20" as="geometry"/>
        </mxCell>
        <mxCell id="i4YYHDQzhJ1eBen9HSnk-43" value="" style="shape=image;verticalLabelPosition=bottom;labelBackgroundColor=#ffffff;verticalAlign=top;aspect=fixed;imageAspect=0;image=https://hackernoon.com/hn-images/1*JK4VDnsrF6YnAb2nyhMsdQ.png;" parent="1" vertex="1">
          <mxGeometry x="-270" y="537" width="286" height="115" as="geometry"/>
        </mxCell>
        <mxCell id="i4YYHDQzhJ1eBen9HSnk-48" value="" style="endArrow=none;dashed=1;html=1;entryX=1.004;entryY=0.638;entryDx=0;entryDy=0;entryPerimeter=0;" parent="1" edge="1" target="i4YYHDQzhJ1eBen9HSnk-7">
          <mxGeometry width="50" height="50" relative="1" as="geometry">
            <mxPoint x="-314" y="510" as="sourcePoint"/>
            <mxPoint x="436.5" y="510" as="targetPoint"/>
          </mxGeometry>
        </mxCell>
        <mxCell id="i4YYHDQzhJ1eBen9HSnk-52" value="" style="edgeStyle=orthogonalEdgeStyle;rounded=0;orthogonalLoop=1;jettySize=auto;html=1;" parent="1" source="i4YYHDQzhJ1eBen9HSnk-49" target="i4YYHDQzhJ1eBen9HSnk-7" edge="1">
          <mxGeometry relative="1" as="geometry">
            <Array as="points">
              <mxPoint x="111" y="710"/>
              <mxPoint x="111" y="710"/>
            </Array>
          </mxGeometry>
        </mxCell>
        <mxCell id="i4YYHDQzhJ1eBen9HSnk-49" value="" style="shape=image;verticalLabelPosition=bottom;labelBackgroundColor=#ffffff;verticalAlign=top;aspect=fixed;imageAspect=0;image=https://user-images.githubusercontent.com/194400/41597205-a57442ea-73c4-11e8-9591-61f5c83c7e66.png;imageBackground=#ffffff;" parent="1" vertex="1">
          <mxGeometry x="-400" y="830" width="1140" height="322.39" as="geometry"/>
        </mxCell>
        <mxCell id="i4YYHDQzhJ1eBen9HSnk-53" value="&lt;font style=&quot;font-size: 24px&quot;&gt;&lt;b&gt;午前5時に定期実行&lt;/b&gt;&lt;/font&gt;" style="text;html=1;resizable=0;points=[];autosize=1;align=left;verticalAlign=top;spacingTop=-4;" parent="1" vertex="1">
          <mxGeometry x="140" y="770" width="220" height="20" as="geometry"/>
        </mxCell>
        <mxCell id="i4YYHDQzhJ1eBen9HSnk-57" value="" style="endArrow=classic;html=1;" parent="1" source="i4YYHDQzhJ1eBen9HSnk-27" edge="1">
          <mxGeometry width="50" height="50" relative="1" as="geometry">
            <mxPoint x="-334.71067811865476" y="470" as="sourcePoint"/>
            <mxPoint x="-382" y="830" as="targetPoint"/>
            <Array as="points">
              <mxPoint x="-384" y="490"/>
              <mxPoint x="-384" y="570"/>
            </Array>
          </mxGeometry>
        </mxCell>
        <mxCell id="i4YYHDQzhJ1eBen9HSnk-58" value="" style="shape=image;html=1;verticalAlign=top;verticalLabelPosition=bottom;labelBackgroundColor=#ffffff;imageAspect=0;aspect=fixed;image=https://cdn2.iconfinder.com/data/icons/pittogrammi/142/32-128.png;rounded=1;" parent="1" vertex="1">
          <mxGeometry x="-480" y="557" width="75" height="75" as="geometry"/>
        </mxCell>
        <mxCell id="i4YYHDQzhJ1eBen9HSnk-61" value="" style="shape=image;verticalLabelPosition=bottom;labelBackgroundColor=#ffffff;verticalAlign=top;aspect=fixed;imageAspect=0;image=data:image/jpeg,/9j/4AAQSkZJRgABAQAAAQABAAD/2wCEAAkGBxAQEBMPEhEVFRATEhgWFRASFRAWEhUVGBcXFxcYFRUYHygsGBsoHRUXIjEiJSkrLjovGR8zOTMtNygtLisBCgoKDg0OGxAQGyslHyE3Nzc4LTg3MCs1MjguNzU3MS0uNSs4NTU3KzUtLS0rLy8tNy01LS0vLjU0NzgvListLf/AABEIAKgBLAMBIgACEQEDEQH/xAAcAAEAAgMBAQEAAAAAAAAAAAAABwgEBQYBAwL/xABHEAABAwICBwMHCQUGBwAAAAABAAIDBBEFMQYHEiFBUWETMnEiUnKBkbGyCBQ0NUJzobPRIzNik8EXJENTkqIWJVSC4fDx/8QAGgEBAAIDAQAAAAAAAAAAAAAAAAUGAQMEAv/EACwRAQACAgIABAILAQAAAAAAAAABAgMRBCEFEjFBE1EiNGFygZGhscHR8Ab/2gAMAwEAAhEDEQA/AJxREQEREBERAREQEREBERAREQEREBERAREQEREBERAREQEREBERAREQEREBERAREQEREBERAREQEREBERAREQEREBERAREQEREBERAREQEREBERAREQEREBERAREQEREBERAREQEREBERAREQEREBERAREQEREBERAREQEREBERAREQEREBERAREQEREBERAREQF4V6vHIOVxfSd7XlkQFmmxed9yM7DksrR/SAzu7KQAPtdpGTrZi3A8VzGL0T4ZXBw3EktdwcCeBX10b+lReJ+Fyl7cfFOHcR7eqs05vIjkxFp99abnSfSk07+xiAMlruc7Jt8gBxKxMB0xe+RsU4HlmzZGi1nHIOHLhdc/pV9Mm9IfCFrqX94z7xvxBQu23Jzc0Z51PUT6JmREXtYRERAREQEREGm0vxh1DQ1FY1ge6GPaDHEgHeBYkeKhr+3+p/6GL+ZJ+ilPWr9TV33B+IKo6C4ug+OuxCggrXsDHTBxLGkkDZe5m4n0Vvlxmpz6jovQk/OkXZoCIiAiIgIiICIiAuB1q6fS4MKYxwMl7cyX23Obs9n2drW57Z9i75Qh8pju4f41HuhQfDDde1TLNFEaKICSRrLiSTdtOAvl1U6qluj30un+/j+MK6aAiIgIiICIiAvHHcvV8K5hdE9rcy0geNlmO5YtOomWgrNLGNcWsYXgfaJsD4Dkvj/wAYH/JH+r/wuWLSNx3EbiDzCKajh4Yj0VS3ifJmd+bX4Q6d+loduMAPQm/9Fs8FxWCc2DAyQC+zZu8cS0jxXCrb6KxOdUsIyYCXHgAQRY+JK15uNjrjmY6028XxDPbNWLd7n5Q1GlX0yb0x8IWupf3jPvG/EFttMadzKuQkbn2c08xYA+5a7CqZ0s8UbRcl7fUAQXE9LBQjXmrPx7R9v8pNxvGo6Roc+5c7usFrn9AtNh+m0b3hkkZYCbB97gelyWp1gu/vLBw7Ie8rmGsLjsgXcdwaMyTkF6me3fyeflpmmtfSP1TSCvVj0MZbFG13eaxoJ6gAFZBXpNx3D8SyBrS5xAaBcuJAAAzJJyCjHSHXbh1O8xwMfUkbi9lmxX6OPeHUBaj5RGkkkTIMOjcWtmaZZrbi5gOyxngSHE+AUQ6HaMzYpVtpIS1ri0uc9/daxuZsM8wAOvrRlLEWv9t/KoTs/wAMgv8AiF1ujWt7C6xzY3PdTyuybOAGE8hIN3tsuCq9QNSGkx1sT323NdG9jSfSBdb2LkoNWeIsxCnoqiBzWTShvbN8qIsHlSEPHENDjY2KCf8AWp9TV33B94VSFbTWbE1mB1jGizW0+y1oyABaAB6lUtBa/U59R0XoSfnSLp8WxWCkidPUStjibm95sOgHM9BvXL6n3huBUZJsAyQknIASyKBtaWmkmKVjwHH5pC4thjGW7cXnm47/AAG7mgk3FtfNIxxbT00krR/iPIYD4NzX7wbXxRyPDKinkhB/xGkSNHi0b7eCgTDcOmqZBDBE+WQ5Mja5zvGwyHVb7EtX+LU0ZlloZQwC5c0NfYc3BhNh4oJ50q1sUdA+Juw+dk0QkZLE5mwWk24rH0X1wUuIVkNHHTytfMSA5xZsizXO3/6VWlzyQBc2GQJNhffu5LsNTv13Rem/8qRBbBc/pXpjQ4Y0Oqpg1x7sTfKld4MHDqbBfDWFpWzCqJ9SQHSnyIoz9qQ5X6DMqqGKYnNVTPqJ5HSSvN3Pcd/gOQ5AbkE2Vmv6EOtFRPLb5ve0E+oZLYYLr2oZXBtRDJBf/EFpGesDeB6ioXwTQnE61na09HI+PhJZrGH0XPIDvUtdjOC1VHJ2VTA+F+YEjSLjm05OHUXQXJw7EIaiNs0MjZIni7ZGEFp9Y9yhr5TPdw/xqPdAuN1N6Q1tLXNhgjkmgmcBNAwEgDLteTSOJ5epdj8pju4f41HugQQ5o99Lp/v4/jCukVS3R/6XT/fx/GFZXWtp83Cqfs4iDWygiNv+WMjI4dOA4lB5pnrVosMqPmrmvllAu8RFto75NcT9q2+y0MevejcQ1tJOXONg0FhJJ3AADMqv1RO6R7pHuLnuJc5zjdziTcknmp61K6uRC1mJ1TP2zheCJw/dtOTyDk4jLkEEt4dO+SJkj4zE9zQTE4tLmE/ZcRuv4LJQIgIiIC8K9WHjBeKeUs7/AGbtm2d7HJGaxuYhzGO6RYUyUtkHaSDc4xtJseRcDvK9wGswytkdFFC7aa3aO0HAWuBz6qIl3OqaMmpmfbc2GxPC5cLD/afYvUZbx1Eyn+Z4Bw8XHtk8u7R79f06XHK3CaN3ZyNBktfYZtuIHXfuW20axSjqGH5qQNnvMtsvHIkH3qFcUlc+eZ7jdxlfc8e8Qtxq/lc3EYLG21tsd1aWONj62g+pJy3t1Myzf/nuNi485KdXiN76/JLWMmmLQ2docODSLu8RyWuoa2igv2UWyTmQ3efWSsDHr9u+/S3hZa9Vvk+K5q5bVrEREdI3HwcUxF7R3828rqigndtyxlzrWuQ7L1FfbCBQNeOyjDH8HOB/AnJc6i018YzxO5iJep8Nwb80R380hL1fKmJ2G372yL+Nt6+qs8TuNo+ekH/KNwCV3zfEGNLo2MMMpA7nlbUbj0Jc4X525qF8LxGallbPBI6OZhu17DYjgfEEZg7ldCtfFshkpZsynYDZNmzyQTs2PeJAO7oo8x/UvhdQS+Lbp3HhEQY/Ux2Sywj/AATXpXxWbURRzt4uF43+JtuJ9QUpaHa0MPxJzYWuMNQ7cIZbDaPJjsnHoot0l1IVlPG+anmZO1gLuzILJNkDhwcem5RUxxBBBIINwRuIPMFBbTWp9TV33B+IKpCspX4vJWaJyVEhvI6ks93nOa4Nv4m11WtBYvA610GhwkabOFLMAeplkH9VXVWO0bw81OiDYWjynUs2z4iWQ/0VcSEFqdUGjMVFhsMgaO3qI2yyyG20doXa2/mtBtbnc8V3CjrUxpjDWUMVI54bVU7BGYyRd7GizXt57gL9QVIcsjWgucQGgXLibADqTkgrTr5wmCnxIOhYGdrEHva3c0vuQSBwutRqd+u6L03/AJUiz9dukNPXYiDTu22RRiMyDuudck7J4jqsDU79d0Xpv/KkQdl8o+vcamlp7+QyNzyOG04gA+wFcXqp0djxHE4oZReFgdLIw/bay3k+BJF+l13PykMMcJaWrA8gsdG4/wAQIcPwuo91b6SDDMRiqX37LeyWwuRG7MjwIB9SC3EUYa0NaAGtAAaAAABuAAGQ6LVaTaOU2IwGnqWbTLggjc9pHFruB4LYUFdFURtmhkbJE8Xa9hBaQeoWi0200pcKh7SZ21IbbEDSO0fvzA4DPeUGzwLAqWhiENNC2JnENG9x5udm4+KiL5TPdw/xqPdApO0U0yocSZtU8wL7eVC7yZW+LTmOoUY/KY7uH+NR7oEEJ0FSYpWSgXMb2vAORLSDv9iycdxeatqJKqZ21JI4k8gODW8gMgvlg8DZKiGN3dfKxptnZzgDb2rfawtDpcKq3QuuYHkuhl85l8j/ABDIoOz1Jav2VbhiNSGugjfaOI2Ie9vF480Hgc/BWGCqdq105lwmp2t7qWQgTQ9PPaODh+I3crWow6uiqImTxPD4pGhzXtyIKDJREQEREBERByeJ6v6KaQyjbjLjdzYyA0k5kNIOzfot3g+DQUcXZQs2W5km5c483OOa2K8dkjovys2SkUtaZiPZXiu/ey/ev+IrcaCfWVN6bvy3rUV4/bS/ev8AiK2+gQJxKm9J35b15Xjk/Vr/AHZ/ZLOJilkOzI8B7d1wbOHRYsGC07+5K53gW/otXjQ/vEnj/RfGgmcyVjm57QFuYJsQVW8vLx2zzGTHE9637qnTDaMe62l0H/DcXnv/ANv6L7UuBRMcHb3EZbVrA87BbVFN14PHrO4pDhnPkmNbeWXqIutpQB8orFpjVU9NsvbBEztA+zgx8rrb2niWgDqNo81yOB61MYpGhjantWDJlQ0SW/7z5X4q0eIYdDURmKeJksZzZI1rm+wrg8T1LYPMSWMlhJ4RSktv4SB1vAIIkxvXDi1VC6Auiia9pa50DHNeWncRtOc7ZvzFiuIwzDpamZkELC+WRwa1jRckn3AcTkFYCLUNhwdd1RUkebtRD8dldzovobQYaCKWAMcR5UpJdK7xe7fboLBBzek2Cih0YmpL3MVJZzubrguPtJVX1dXG8KirKeSlmBMUrdlwabG1wdx4ZLhv7FcG8yb+c79EGy1Oj/kdF6En50ihjW/oDJh9S+qibeimftAgH9i9x3sdyFzuPW2asXo/g0NDTR0kAIhiBDQ4lzvKcXG5Oe9xWZUU7JGmN7Q5jhZzHAFpBzBBzQUmjkcwhzSWuGTgSCD4hZlXjdXM3Ylqp5GebJLK5vscVYnGNSmEzuL4xLASb7MTwY7nOzXg28AQF+sF1L4TTuD3tkqCDcNmeOzv1YwC/gbhBWuopJI2sc9ha2Ru0wkW2m3tcdF1ep367ovTf+VIrBaT6ucOxGRks7H3YwMaI3ljQ0ZANAWNgOqzDKKojq4WyiWIktLpXOG9pabjjucUG60z0bixOjkpJN20LsfxY8d1w/8AciqoaSaO1OHzup6mMteMnb9h485juIVy7LX43gVLWx9jUwslj5PG8dWuG9p6ggoKd0GL1NOCIaiaK+fZSSMv47JCx6mofI4vke57zm57i5x8SVYqu1FYW9145KiMeaHsc0eG02/tK2GCam8IpnB7o31Dhl84fdl/QaACOjroIr1O6CVFZUsrX7cVJC7a7QFzXSuGTYyOHM5cF0/ymO7h/jUe6BTbFE1oDWgBoFg0AAAcgBkuf0v0Ko8V7L50157Hb2Nh5Z39navbPuBBU/R76XT/AH8fxhWz020VgxSkfTSizu9FLbyo5ODh04EcQudpdTmERvbI1k20xwcP2zs2m44dFINkFL8fwaehqJKWduzJGbdHDg5p4tPNdxqh1hnDZfmtQ4/MpXZm57F5+0OTTx9qnPS3QWgxRzH1Mbi+MEB7HFjrHgSMwue/sVwbzJv5zv0QSJHIHAOaQWkAggggg7wQeS/a1mjuBxUMDaaJ0hiZfYEry8tHmtJ+z0WzQEREBERAXhXqIOG0l1fsqZXTwyCNzzd7HNuwniRbeCs/RHQyOhcZXPMk5bs7VrNY3iGt68Sf/vVWRHZbxDkWxfCm30f97tViuDtmO0Dsvta9rgjqF8sNwIRuD3O2nDIAWAPPqt0vLLlnhYJyfEmvbRGe8V8u+nqIi6moREQEREBERAREQEREBERAREQEREBERAREQEREBERAREQEREBERAREQEREBERAREQEREBERAREQEREBERAREQEREBERAREQEREBERAREQEREBERAREQEREBERAREQEREBERAREQEREBERAREQEREBERAREQEREBERAREQEREBERAREQEREBERAREQEREBERAREQEREBERAREQEREBERAREQEREBERAREQEREBERAREQEREH//Z;" parent="1" vertex="1">
          <mxGeometry x="-778" y="1040" width="160.2" height="90" as="geometry"/>
        </mxCell>
        <mxCell id="i4YYHDQzhJ1eBen9HSnk-62" value="&lt;font style=&quot;font-size: 24px&quot;&gt;&lt;b&gt;撮影画像&lt;/b&gt;&lt;/font&gt;" style="text;html=1;resizable=0;points=[];autosize=1;align=left;verticalAlign=top;spacingTop=-4;" parent="1" vertex="1">
          <mxGeometry x="-497.5" y="530" width="110" height="20" as="geometry"/>
        </mxCell>
        <mxCell id="i4YYHDQzhJ1eBen9HSnk-74" value="" style="endArrow=classic;html=1;exitX=-0.002;exitY=0.803;exitDx=0;exitDy=0;exitPerimeter=0;" parent="1" target="i4YYHDQzhJ1eBen9HSnk-61" edge="1" source="i4YYHDQzhJ1eBen9HSnk-49">
          <mxGeometry width="50" height="50" relative="1" as="geometry">
            <mxPoint x="-344" y="1010" as="sourcePoint"/>
            <mxPoint x="-14" y="1080" as="targetPoint"/>
            <Array as="points"/>
          </mxGeometry>
        </mxCell>
        <mxCell id="i4YYHDQzhJ1eBen9HSnk-23" value="" style="shape=image;verticalLabelPosition=bottom;labelBackgroundColor=#ffffff;verticalAlign=top;aspect=fixed;imageAspect=0;image=https://miro.medium.com/max/600/1*Z3QcBB__mvWCqood2fbiBQ.png;imageBorder=#000000;perimeterSpacing=8;dashed=1;" parent="1" vertex="1">
          <mxGeometry x="60" y="300.78000000000003" width="301.51" height="129.21" as="geometry"/>
        </mxCell>
        <mxCell id="i4YYHDQzhJ1eBen9HSnk-25" value="" style="shape=image;verticalLabelPosition=bottom;labelBackgroundColor=#ffffff;verticalAlign=top;aspect=fixed;imageAspect=0;image=https://www.nginx.com/wp-content/uploads/2018/08/NGINX-logo-rgb-large.png;imageBorder=#000000;dashed=1;" parent="1" vertex="1">
          <mxGeometry x="540" y="321.82" width="259.43" height="87.12" as="geometry"/>
        </mxCell>
        <mxCell id="H8nbsM9TTF3VbTafch5q-2" value="" style="outlineConnect=0;dashed=0;verticalLabelPosition=bottom;verticalAlign=top;align=center;html=1;shape=mxgraph.aws3.s3;fillColor=#E05243;gradientColor=none;" vertex="1" parent="1">
          <mxGeometry x="-770" y="290" width="180" height="170" as="geometry"/>
        </mxCell>
        <mxCell id="H8nbsM9TTF3VbTafch5q-4" value="" style="shape=flexArrow;endArrow=classic;html=1;" edge="1" parent="1" source="i4YYHDQzhJ1eBen9HSnk-27" target="i4YYHDQzhJ1eBen9HSnk-23">
          <mxGeometry width="50" height="50" relative="1" as="geometry">
            <mxPoint x="-90" y="400" as="sourcePoint"/>
            <mxPoint x="-40" y="350" as="targetPoint"/>
          </mxGeometry>
        </mxCell>
        <mxCell id="H8nbsM9TTF3VbTafch5q-6" value="" style="endArrow=classic;html=1;entryX=-0.024;entryY=0.612;entryDx=0;entryDy=0;entryPerimeter=0;" edge="1" parent="1" target="i4YYHDQzhJ1eBen9HSnk-27">
          <mxGeometry width="50" height="50" relative="1" as="geometry">
            <mxPoint x="-570" y="390" as="sourcePoint"/>
            <mxPoint x="-330" y="390" as="targetPoint"/>
          </mxGeometry>
        </mxCell>
        <mxCell id="H8nbsM9TTF3VbTafch5q-7" value="&lt;font style=&quot;font-size: 24px&quot;&gt;&lt;b&gt;正解画像&lt;/b&gt;&lt;/font&gt;" style="text;html=1;align=center;verticalAlign=middle;resizable=0;points=[];;autosize=1;" vertex="1" parent="1">
          <mxGeometry x="-455" y="351" width="110" height="20" as="geometry"/>
        </mxCell>
        <mxCell id="H8nbsM9TTF3VbTafch5q-12" value="" style="shape=flexArrow;endArrow=classic;html=1;entryX=1;entryY=0.5;entryDx=0;entryDy=0;exitX=0;exitY=0.5;exitDx=0;exitDy=0;" edge="1" parent="1" source="i4YYHDQzhJ1eBen9HSnk-25" target="i4YYHDQzhJ1eBen9HSnk-23">
          <mxGeometry width="50" height="50" relative="1" as="geometry">
            <mxPoint x="432" y="492" as="sourcePoint"/>
            <mxPoint x="482" y="442" as="targetPoint"/>
          </mxGeometry>
        </mxCell>
        <mxCell id="H8nbsM9TTF3VbTafch5q-14" value="&lt;font style=&quot;font-size: 24px&quot;&gt;Dockerによる仮想コンテナネットワーク&lt;/font&gt;" style="text;html=1;resizable=0;autosize=1;align=center;verticalAlign=middle;points=[];fillColor=none;strokeColor=none;rounded=0;dashed=1;" vertex="1" parent="1">
          <mxGeometry x="40" y="590" width="450" height="20" as="geometry"/>
        </mxCell>
        <mxCell id="H8nbsM9TTF3VbTafch5q-15" value="&lt;font style=&quot;font-size: 24px&quot;&gt;AWS S3&lt;/font&gt;" style="text;html=1;align=center;verticalAlign=middle;resizable=0;points=[];;autosize=1;" vertex="1" parent="1">
          <mxGeometry x="-710" y="260" width="110" height="20" as="geometry"/>
        </mxCell>
        <mxCell id="H8nbsM9TTF3VbTafch5q-19" value="&lt;font style=&quot;font-size: 24px&quot;&gt;CI上のワークフロー&lt;/font&gt;" style="text;html=1;resizable=0;autosize=1;align=center;verticalAlign=middle;points=[];fillColor=none;strokeColor=none;rounded=0;dashed=1;" vertex="1" parent="1">
          <mxGeometry x="540" y="1180" width="230" height="20" as="geometry"/>
        </mxCell>
        <mxCell id="H8nbsM9TTF3VbTafch5q-22" value="" style="shape=image;verticalLabelPosition=bottom;labelBackgroundColor=#ffffff;verticalAlign=top;aspect=fixed;imageAspect=0;image=https://code.visualstudio.com/assets/updates/1_35/logo-stable.png;" vertex="1" parent="1">
          <mxGeometry x="-743.15" y="860" width="110.29" height="110.29" as="geometry"/>
        </mxCell>
        <mxCell id="H8nbsM9TTF3VbTafch5q-23" value="&lt;font style=&quot;font-size: 24px&quot;&gt;&lt;b&gt;実行結果を通知&lt;/b&gt;&lt;/font&gt;" style="text;html=1;" vertex="1" parent="1">
          <mxGeometry x="-598" y="1040" width="70" height="30" as="geometry"/>
        </mxCell>
        <mxCell id="H8nbsM9TTF3VbTafch5q-34" value="&lt;font style=&quot;font-size: 24px&quot;&gt;&lt;b&gt;正解画像up&lt;/b&gt;&lt;/font&gt;" style="text;html=1;align=center;verticalAlign=middle;resizable=0;points=[];;autosize=1;" vertex="1" parent="1">
          <mxGeometry x="-820" y="590" width="140" height="20" as="geometry"/>
        </mxCell>
        <mxCell id="H8nbsM9TTF3VbTafch5q-35" value="" style="outlineConnect=0;dashed=0;verticalLabelPosition=bottom;verticalAlign=top;align=center;html=1;shape=mxgraph.aws3.mysql_db_instance_2;fillColor=#2E73B8;gradientColor=none;" vertex="1" parent="1">
          <mxGeometry x="630" y="28.5" width="60" height="63" as="geometry"/>
        </mxCell>
        <mxCell id="H8nbsM9TTF3VbTafch5q-38" value="" style="outlineConnect=0;dashed=0;verticalLabelPosition=bottom;verticalAlign=top;align=center;html=1;shape=mxgraph.aws3.redis;fillColor=#2E73B8;gradientColor=none;" vertex="1" parent="1">
          <mxGeometry x="730" y="27.5" width="60" height="63" as="geometry"/>
        </mxCell>
        <mxCell id="H8nbsM9TTF3VbTafch5q-41" value="Amazon EKS" style="outlineConnect=0;fontColor=#232F3E;gradientColor=none;strokeColor=#ffffff;fillColor=#232F3E;dashed=0;verticalLabelPosition=middle;verticalAlign=bottom;align=center;html=1;whiteSpace=wrap;fontSize=10;fontStyle=1;spacing=3;shape=mxgraph.aws4.productIcon;prIcon=mxgraph.aws4.eks;" vertex="1" parent="1">
          <mxGeometry x="50" y="10.000000000000064" width="80" height="100" as="geometry"/>
        </mxCell>
        <mxCell id="H8nbsM9TTF3VbTafch5q-43" value="&lt;font style=&quot;font-size: 24px&quot;&gt;ローカル&lt;/font&gt;" style="text;html=1;" vertex="1" parent="1">
          <mxGeometry x="-680" y="1195.5" width="98" height="30" as="geometry"/>
        </mxCell>
      </root>
    </mxGraphModel>
  </diagram>
</mxfile>
